<svg
    xmlns="http://www.w3.org/2000/svg"
    viewBox="0 0 24 24"
    id="vector">
    <path
        id="path"
        d="M 21.752 12.224 C 21.751 11.592 21.698 10.962 21.594 10.339 L 12.212 10.339 L 12.212 14.084 L 17.584 14.084 C 17.466 14.687 17.229 15.26 16.887 15.771 C 16.544 16.281 16.104 16.718 15.591 17.056 L 15.591 19.547 L 18.791 19.547 C 19.768 18.601 20.537 17.46 21.047 16.199 C 21.557 14.938 21.797 13.584 21.752 12.224 Z"
        fill="#4285f4"/>
    <path
        id="path_1"
        d="M 12.212 21.963 C 14.634 22.028 16.991 21.163 18.796 19.547 L 15.596 17.056 C 14.591 17.706 13.414 18.042 12.217 18.019 C 10.972 18.004 9.763 17.598 8.76 16.859 C 7.758 16.121 7.012 15.086 6.629 13.901 L 3.329 13.901 L 3.329 16.467 C 4.155 18.116 5.423 19.504 6.991 20.475 C 8.56 21.445 10.368 21.96 12.212 21.963 Z"
        fill="#34a853"/>
    <path
        id="path_2"
        d="M 6.624 13.901 C 6.413 13.29 6.306 12.648 6.308 12.001 C 6.31 11.355 6.417 10.713 6.624 10.101 L 6.624 7.533 L 3.324 7.533 C 2.62 8.917 2.253 10.447 2.253 12 C 2.253 13.553 2.62 15.083 3.324 16.467 Z"
        fill="#fbbc05"/>
    <path
        id="path_3"
        d="M 12.212 5.98 C 13.631 5.957 15.004 6.495 16.031 7.475 L 18.871 4.635 C 17.074 2.937 14.684 2.004 12.212 2.035 C 10.365 2.036 8.555 2.551 6.985 3.523 C 5.414 4.494 4.145 5.883 3.319 7.535 L 6.619 10.101 C 7.002 8.915 7.748 7.879 8.752 7.139 C 9.755 6.4 10.966 5.994 12.212 5.98 Z"
        fill="#ea4335"/>
</svg>
